<?xml version="1.0" encoding="UTF-8" standalone="no"?>
<!DOCTYPE svg PUBLIC "-//W3C//DTD SVG 1.1//EN"
 "http://www.w3.org/Graphics/SVG/1.1/DTD/svg11.dtd">
<!-- Generated by graphviz version 2.40.1 (20161225.0304)
 -->
<!-- Title: G Pages: 1 -->
<svg width="368pt" height="44pt"
 viewBox="0.00 0.00 367.84 44.00" xmlns="http://www.w3.org/2000/svg" xmlns:xlink="http://www.w3.org/1999/xlink">
<g id="graph0" class="graph" transform="scale(1 1) rotate(0) translate(4 40)">
<title>G</title>
<polygon fill="#ffffff" stroke="transparent" points="-4,4 -4,-40 363.8375,-40 363.8375,4 -4,4"/>
<!-- A0 -->
<g id="node1" class="node">
<title>A0</title>
<polygon fill="none" stroke="#000000" points="71.5003,-36 -.1673,-36 -.1673,0 71.5003,0 71.5003,-36"/>
<text text-anchor="middle" x="35.6665" y="-15" font-family="Helvetica,sans-Serif" font-size="10.00" fill="#000000">Customer</text>
</g>
<!-- A1 -->
<g id="node2" class="node">
<title>A1</title>
<polygon fill="none" stroke="#000000" points="143.6665,-36 89.6665,-36 89.6665,0 143.6665,0 143.6665,-36"/>
<text text-anchor="middle" x="116.6665" y="-15" font-family="Helvetica,sans-Serif" font-size="10.00" fill="#000000">Order</text>
</g>
<!-- A3 -->
<g id="node4" class="node">
<title>A3</title>
<polygon fill="none" stroke="#000000" points="269.8086,-36 161.5244,-36 161.5244,0 275.8086,0 275.8086,-30 269.8086,-36"/>
<polyline fill="none" stroke="#000000" points="269.8086,-36 269.8086,-30 "/>
<polyline fill="none" stroke="#000000" points="275.8086,-30 269.8086,-30 "/>
<text text-anchor="middle" x="218.6665" y="-21" font-family="Helvetica,sans-Serif" font-size="10.00" fill="#000000">Aggregate Root ala</text>
<text text-anchor="middle" x="218.6665" y="-9" font-family="Helvetica,sans-Serif" font-size="10.00" fill="#000000">DDD</text>
</g>
<!-- A1&#45;&gt;A3 -->
<g id="edge1" class="edge">
<title>A1&#45;&gt;A3</title>
<path fill="none" stroke="#000000" stroke-dasharray="5,2" d="M143.7602,-18C149.6123,-18 155.4644,-18 161.3164,-18"/>
</g>
<!-- A2 -->
<g id="node3" class="node">
<title>A2</title>
<polygon fill="none" stroke="#000000" points="360.0094,-36 293.3236,-36 293.3236,0 360.0094,0 360.0094,-36"/>
<text text-anchor="middle" x="326.6665" y="-15" font-family="Helvetica,sans-Serif" font-size="10.00" fill="#000000">LineItem</text>
</g>
</g>
</svg>
